<?xml version="1.0" standalone="no"?>
<!DOCTYPE svg PUBLIC "-//W3C//DTD SVG 20010904//EN"
 "http://www.w3.org/TR/2001/REC-SVG-20010904/DTD/svg10.dtd">
<svg version="1.0" xmlns="http://www.w3.org/2000/svg"
 width="450.000000pt" height="450.000000pt" viewBox="0 0 450.000000 450.000000"
 preserveAspectRatio="xMidYMid meet">
<metadata>
Created by potrace 1.14, written by Peter Selinger 2001-2017
</metadata>
<g transform="translate(0.000000,450.000000) scale(0.100000,-0.100000)"
fill="#000000" stroke="none">
<path d="M2013 3958 c-17 -20 -59 -152 -78 -243 -49 -240 -39 -518 29 -797 13
-54 20 -98 16 -98 -4 0 -36 13 -71 29 -133 59 -323 79 -453 45 -222 -57 -405
-255 -467 -504 -20 -80 -18 -289 4 -370 23 -86 84 -211 138 -283 83 -111 179
-154 492 -217 213 -43 302 -73 360 -121 50 -41 109 -144 149 -259 32 -93 33
-98 32 -260 0 -113 -6 -190 -17 -245 -14 -67 -15 -81 -3 -93 26 -26 51 3 94
106 72 173 110 327 137 555 7 65 15 121 18 123 3 3 45 0 93 -7 108 -14 296 -6
378 16 149 40 257 99 364 200 90 84 141 151 193 253 136 265 144 590 21 827
-52 101 -164 211 -262 258 -158 75 -379 87 -599 32 -57 -14 -106 -23 -109 -20
-9 9 18 75 60 147 100 174 291 382 455 497 l91 65 -16 40 c-22 59 -75 139
-107 164 l-27 21 -56 -28 c-82 -42 -212 -137 -314 -231 -100 -92 -100 -94 -11
93 66 138 66 141 -29 212 -52 39 -144 84 -152 74 -1 -2 -27 -48 -56 -101 -54
-99 -77 -125 -58 -65 29 88 29 87 -74 140 -105 54 -149 65 -165 45z"/>
</g>
</svg>
