<?xml version="1.0" standalone="no"?>
<!DOCTYPE svg PUBLIC "-//W3C//DTD SVG 20010904//EN"
 "http://www.w3.org/TR/2001/REC-SVG-20010904/DTD/svg10.dtd">
<svg version="1.0" xmlns="http://www.w3.org/2000/svg"
 width="138.000000pt" height="138.000000pt" viewBox="0 0 138.000000 138.000000"
 preserveAspectRatio="xMidYMid meet">
<metadata>
Created by potrace 1.11, written by Peter Selinger 2001-2013
</metadata>
<g transform="translate(0.000000,138.000000) scale(0.100000,-0.100000)"
fill="#000000" stroke="none">
<path d="M390 1360 c-30 -4 -72 -10 -92 -14 l-38 -7 0 -659 0 -659 38 -8 c20
-4 123 -7 227 -6 159 1 203 4 269 22 151 40 234 101 284 209 24 50 27 69 26
157 0 81 -4 109 -22 146 -30 64 -95 125 -175 163 l-68 33 53 31 c64 35 113 88
142 151 26 58 28 177 3 234 -40 92 -127 161 -242 192 -65 18 -308 27 -405 15z
m362 -150 c110 -41 157 -142 122 -259 -9 -33 -27 -60 -54 -85 -65 -59 -99 -68
-252 -74 l-137 -4 2 218 2 219 35 6 c76 12 223 1 282 -21z m-7 -574 c116 -36
185 -126 185 -240 -1 -104 -48 -178 -143 -221 -79 -36 -142 -44 -313 -37 l-42
2 0 253 c0 138 3 256 6 261 8 13 251 -1 307 -18z"/>
</g>
</svg>
