<?xml version="1.0" standalone="no"?>
<!DOCTYPE svg PUBLIC "-//W3C//DTD SVG 20010904//EN"
 "http://www.w3.org/TR/2001/REC-SVG-20010904/DTD/svg10.dtd">
<svg version="1.0" xmlns="http://www.w3.org/2000/svg"
 width="452.000000pt" height="452.000000pt" viewBox="0 0 452.000000 452.000000"
 preserveAspectRatio="xMidYMid meet">
<metadata>
Created by potrace 1.14, written by Peter Selinger 2001-2017
</metadata>
<g transform="translate(0.000000,452.000000) scale(0.100000,-0.100000)"
fill="#000000" stroke="none">
<path d="M230 4237 c-13 -7 -30 -24 -37 -37 -10 -20 -13 -423 -13 -1947 l0
-1922 24 -28 24 -28 388 -3 c261 -2 397 1 414 8 59 25 56 -33 56 1132 -1 587
2 1064 5 1060 7 -7 50 -110 287 -687 509 -1236 531 -1288 553 -1310 19 -19 33
-20 329 -20 296 0 310 1 329 20 11 11 81 169 156 350 74 182 140 339 145 350
13 29 510 1233 526 1275 7 19 14 33 15 30 1 -3 2 -486 3 -1075 2 -1162 -1
-1101 56 -1125 17 -7 156 -10 414 -8 l388 3 24 30 24 30 0 1917 c0 1196 -4
1926 -10 1942 -20 55 -32 56 -490 56 -350 0 -426 -2 -449 -15 -16 -8 -31 -20
-34 -27 -5 -15 -423 -1028 -442 -1073 -36 -86 -576 -1397 -612 -1485 -34 -84
-53 -117 -53 -91 0 10 -239 600 -270 666 -5 11 -53 126 -106 255 -215 527
-446 1087 -459 1115 -7 17 -50 120 -95 230 -45 110 -88 214 -95 230 -7 17 -25
60 -40 96 -43 105 -13 99 -507 99 -319 0 -429 -3 -448 -13z m799 -185 c8 -14
176 -421 401 -967 31 -77 153 -372 270 -655 117 -283 227 -551 245 -595 83
-201 204 -492 215 -516 22 -48 102 -69 157 -42 36 17 25 -8 324 718 110 270
209 508 219 530 9 22 20 49 24 60 8 22 161 395 181 440 19 44 268 647 332 805
30 74 63 153 74 177 10 23 19 47 19 53 0 7 102 9 333 8 l332 -3 1 -1807 2
-1807 -271 2 -271 2 -1 1192 0 1192 -22 22 c-41 41 -160 42 -195 2 -9 -10 -41
-79 -71 -153 -71 -175 -175 -427 -193 -465 -7 -16 -22 -55 -34 -85 -11 -30
-25 -64 -30 -75 -5 -11 -96 -229 -201 -485 -105 -256 -197 -478 -204 -495 -7
-16 -23 -55 -35 -85 -12 -30 -28 -68 -35 -85 -7 -16 -38 -91 -69 -165 l-55
-135 -210 -2 -210 -2 -46 112 c-26 62 -65 154 -86 204 -21 51 -39 95 -39 98 0
4 -9 25 -19 48 -10 23 -40 94 -66 157 -25 63 -52 129 -60 145 -7 17 -23 55
-35 85 -12 30 -28 71 -37 90 -8 19 -19 44 -24 55 -4 11 -114 276 -243 590
-129 314 -242 587 -250 607 -9 20 -26 44 -38 52 -26 18 -128 22 -159 6 -47
-26 -46 9 -45 -1247 l1 -1182 -272 0 -271 0 0 1809 0 1809 329 0 c299 0 330
-2 338 -17z"/>
</g>
</svg>
